<svg xmlns="http://www.w3.org/2000/svg" width="566.127" height="525.72" viewBox="0 0 566.127 525.72">
  <path id="Path_44" data-name="Path 44" d="M318.66,88.675c-39.89-4.806-81.009-14.83-117.6,1.558-40.889,18.314-76.034,51.067-92.163,92.4-16.569,42.455-10.074,89.8,4.171,133.068s34.963,89.141,75.9,110.142c39.338,20.182,86.658,5.886,129.69-4.669,34.122-8.37,60.346-30.565,89.987-49.215,32.122-20.211,68.656-33.5,90.452-64.316,27.556-38.964,66.337-87.107,47.584-130.863-19.073-44.5-83.982-42.889-129.6-60.516C384.528,103.684,353.364,92.856,318.66,88.675Z" transform="matrix(0.883, 0.469, -0.469, 0.883, 117.203, -118.23)" fill="#1f8de4" fill-rule="evenodd"/>
</svg>
