<svg xmlns="http://www.w3.org/2000/svg" width="566.126" height="525.72" viewBox="0 0 566.126 525.72">
  <path id="Path_45" data-name="Path 45" d="M219.566,347.342c-39.89,4.806-81.009,14.83-117.6-1.558-40.889-18.314-76.034-51.067-92.163-92.4-16.569-42.455-10.074-89.8,4.171-133.068S48.94,31.18,89.877,10.178C129.214-10,176.534,4.292,219.566,14.847c34.122,8.37,60.346,30.565,89.987,49.215,32.122,20.211,68.656,33.5,90.452,64.316,27.556,38.964,66.337,87.107,47.584,130.862-19.073,44.5-83.982,42.889-129.6,60.516C285.434,332.333,254.27,343.16,219.566,347.342Z" transform="matrix(0.883, -0.469, 0.469, 0.883, 0, 212.448)" fill="#fac720" fill-rule="evenodd"/>
</svg>
