<svg xmlns="http://www.w3.org/2000/svg" width="648.461" height="508.425" viewBox="0 0 648.461 508.425">
  <path id="Path_4" data-name="Path 4" d="M432.921,91.9c57.161-6.887,116.085-21.251,168.515,2.232,58.594,26.244,108.955,73.178,132.067,132.4,23.743,60.837,14.435,128.682-5.977,190.684s-50.1,127.737-108.762,157.832c-56.37,28.92-124.179,8.435-185.843-6.69-48.9-11.994-86.475-43.8-128.95-70.524-46.03-28.962-98.382-48-129.616-92.163C134.867,349.842,79.3,280.854,106.168,218.153c27.332-63.773,120.345-61.459,185.72-86.718C338.534,113.413,383.191,97.9,432.921,91.9Z" transform="translate(-99.094 -81.215)" fill="#1f8de4" fill-rule="evenodd"/>
</svg>
