<?xml version="1.0" encoding="utf-8"?><svg version="1.1" id="Layer_1" xmlns="http://www.w3.org/2000/svg" xmlns:xlink="http://www.w3.org/1999/xlink" x="0px" y="0px" viewBox="0 0 122.88 98.21" style="enable-background:new 0 0 122.88 98.21" xml:space="preserve"><style type="text/css">.st0{fill-rule:evenodd;clip-rule:evenodd;}</style><g><path class="st0" d="M49.11,35.13c7.2,5.16,18.74-0.38,23.28,8.6c1.2,2.38,1.46,5.64,0.38,8.23c-0.44,1.04-1.08,1.97-1.96,2.68 c-0.39,0.31-0.82,0.59-1.3,0.83c-5.92,2.94-12.1-1.17-15.37-6.14C51.13,44.75,49.82,39.04,49.11,35.13L49.11,35.13z M100.01,0H7.26 C3.27,0,0,3.27,0,7.26v77.78c0,3.99,3.27,7.26,7.26,7.26h72.36l-6.27-5.34H7.12c-0.56,0-1.05-0.21-1.42-0.59 c-0.37-0.37-0.59-0.87-0.59-1.42V20.33H5.08h96.79V50l5.4,4.38V7.26C107.27,3.27,104,0,100.01,0L100.01,0z M14.17,8.16 c-1.98,0-3.59,1.61-3.59,3.59c0,1.98,1.61,3.58,3.59,3.58c1.98,0,3.59-1.61,3.59-3.58C17.76,9.77,16.15,8.16,14.17,8.16L14.17,8.16 z M38.48,8.16c-1.98,0-3.59,1.61-3.59,3.59c0,1.98,1.6,3.58,3.59,3.58c1.98,0,3.59-1.61,3.59-3.58 C42.07,9.77,40.46,8.16,38.48,8.16L38.48,8.16z M26.33,8.16c-1.98,0-3.59,1.61-3.59,3.59c0,1.98,1.61,3.58,3.59,3.58 c1.98,0,3.59-1.61,3.59-3.58C29.91,9.77,28.31,8.16,26.33,8.16L26.33,8.16z M85.63,74.54c4.01-3.2,7.12-6.89,9.24-11.12l25.8,27.21 c1.95,1.84,3.05,3.41,1.42,6.23c-0.81,0.83-1.67,1.28-2.58,1.34c-0.9,0.06-1.85-0.26-2.84-0.98L85.63,74.54L85.63,74.54z M72.02,58.75c1.74-0.93,4.12-3.23,4.69-5.74l16.15,8.86c-2.33,4.64-5.3,8.61-9.37,11.43C79.24,67.6,76.86,64.16,72.02,58.75 L72.02,58.75z"/></g></svg>